<svg xmlns="http://www.w3.org/2000/svg" width="1262" height="318" viewBox="0 0 1262 318">
<rect width="100%" height="100%" fill="#ffffff"/>
<style>text{font-family:'DejaVu Sans',sans-serif}</style>
<polygon points="81.00,147.00 469.44,147.00 469.44,81.00 81.00,81.00" fill="#eceae4" stroke="#cfccc4" stroke-width="0.8" fill-opacity="0.9"><title>floor_lower</title></polygon>
<polygon points="572.56,147.00 1181.00,147.00 1181.00,81.00 572.56,81.00" fill="#eceae4" stroke="#cfccc4" stroke-width="0.8" fill-opacity="0.9"><title>floor_upper</title></polygon>
<polygon points="469.44,147.00 572.78,147.00 572.78,81.00 469.44,81.00" fill="#cfd6c2" stroke="#9aa38a" stroke-width="0.8" fill-opacity="0.9"><title>floor_ramp</title></polygon>
<polygon points="81.00,81.00 166.25,81.00 166.25,70.00 81.00,70.00" fill="#5a5f66" stroke="#33373c" stroke-width="0.8" fill-opacity="0.9"><title>wall_door_seg0</title></polygon>
<polygon points="215.75,81.00 386.25,81.00 386.25,70.00 215.75,70.00" fill="#5a5f66" stroke="#33373c" stroke-width="0.8" fill-opacity="0.9"><title>wall_door_seg1</title></polygon>
<polygon points="435.75,81.00 606.25,81.00 606.25,70.00 435.75,70.00" fill="#5a5f66" stroke="#33373c" stroke-width="0.8" fill-opacity="0.9"><title>wall_door_seg2</title></polygon>
<polygon points="655.75,81.00 826.25,81.00 826.25,70.00 655.75,70.00" fill="#5a5f66" stroke="#33373c" stroke-width="0.8" fill-opacity="0.9"><title>wall_door_seg3</title></polygon>
<polygon points="875.75,81.00 1046.25,81.00 1046.25,70.00 875.75,70.00" fill="#5a5f66" stroke="#33373c" stroke-width="0.8" fill-opacity="0.9"><title>wall_door_seg4</title></polygon>
<polygon points="1095.75,81.00 1181.00,81.00 1181.00,70.00 1095.75,70.00" fill="#5a5f66" stroke="#33373c" stroke-width="0.8" fill-opacity="0.9"><title>wall_door_seg5</title></polygon>
<polygon points="166.25,73.30 215.75,73.30 215.75,70.00 166.25,70.00" fill="#5a5f66" stroke="#33373c" stroke-width="0.8" fill-opacity="0.9"><title>wall_door_doorback0</title></polygon>
<polygon points="166.25,81.00 215.75,81.00 215.75,73.30 166.25,73.30" fill="#5a5f66" stroke="#33373c" stroke-width="0.8" fill-opacity="0.9"><title>wall_door_lintel0</title></polygon>
<polygon points="386.25,73.30 435.75,73.30 435.75,70.00 386.25,70.00" fill="#5a5f66" stroke="#33373c" stroke-width="0.8" fill-opacity="0.9"><title>wall_door_doorback1</title></polygon>
<polygon points="386.25,81.00 435.75,81.00 435.75,73.30 386.25,73.30" fill="#5a5f66" stroke="#33373c" stroke-width="0.8" fill-opacity="0.9"><title>wall_door_lintel1</title></polygon>
<polygon points="606.25,73.30 655.75,73.30 655.75,70.00 606.25,70.00" fill="#5a5f66" stroke="#33373c" stroke-width="0.8" fill-opacity="0.9"><title>wall_door_doorback2</title></polygon>
<polygon points="606.25,81.00 655.75,81.00 655.75,73.30 606.25,73.30" fill="#5a5f66" stroke="#33373c" stroke-width="0.8" fill-opacity="0.9"><title>wall_door_lintel2</title></polygon>
<polygon points="826.25,73.30 875.75,73.30 875.75,70.00 826.25,70.00" fill="#5a5f66" stroke="#33373c" stroke-width="0.8" fill-opacity="0.9"><title>wall_door_doorback3</title></polygon>
<polygon points="826.25,81.00 875.75,81.00 875.75,73.30 826.25,73.30" fill="#5a5f66" stroke="#33373c" stroke-width="0.8" fill-opacity="0.9"><title>wall_door_lintel3</title></polygon>
<polygon points="1046.25,73.30 1095.75,73.30 1095.75,70.00 1046.25,70.00" fill="#5a5f66" stroke="#33373c" stroke-width="0.8" fill-opacity="0.9"><title>wall_door_doorback4</title></polygon>
<polygon points="1046.25,81.00 1095.75,81.00 1095.75,73.30 1046.25,73.30" fill="#5a5f66" stroke="#33373c" stroke-width="0.8" fill-opacity="0.9"><title>wall_door_lintel4</title></polygon>
<polygon points="70.00,158.00 81.00,158.00 81.00,70.00 70.00,70.00" fill="#5a5f66" stroke="#33373c" stroke-width="0.8" fill-opacity="0.9"><title>end_wall_near</title></polygon>
<polygon points="1181.00,158.00 1192.00,158.00 1192.00,138.75 1181.00,138.75" fill="#5a5f66" stroke="#33373c" stroke-width="0.8" fill-opacity="0.9"><title>fire_door_far_jamb0</title></polygon>
<polygon points="1181.00,89.25 1192.00,89.25 1192.00,70.00 1181.00,70.00" fill="#5a5f66" stroke="#33373c" stroke-width="0.8" fill-opacity="0.9"><title>fire_door_far_jamb1</title></polygon>
<polygon points="81.00,155.25 1181.00,155.25 1181.00,147.00 81.00,147.00" fill="#a9b0b8" stroke="#6f767e" stroke-width="0.8" fill-opacity="0.9"><title>parapet</title></polygon>
<polygon points="166.25,81.55 215.75,81.55 215.75,74.95 166.25,74.95" fill="#8f8f96" stroke="#5c5c62" stroke-width="0.8" fill-opacity="0.9"><title>wall_door_threshold0</title></polygon>
<polygon points="386.25,81.55 435.75,81.55 435.75,74.95 386.25,74.95" fill="#8f8f96" stroke="#5c5c62" stroke-width="0.8" fill-opacity="0.9"><title>wall_door_threshold1</title></polygon>
<polygon points="606.25,81.55 655.75,81.55 655.75,74.95 606.25,74.95" fill="#8f8f96" stroke="#5c5c62" stroke-width="0.8" fill-opacity="0.9"><title>wall_door_threshold2</title></polygon>
<polygon points="826.25,81.55 875.75,81.55 875.75,74.95 826.25,74.95" fill="#8f8f96" stroke="#5c5c62" stroke-width="0.8" fill-opacity="0.9"><title>wall_door_threshold3</title></polygon>
<polygon points="1046.25,81.55 1095.75,81.55 1095.75,74.95 1046.25,74.95" fill="#8f8f96" stroke="#5c5c62" stroke-width="0.8" fill-opacity="0.9"><title>wall_door_threshold4</title></polygon>
<polygon points="166.25,75.50 215.75,75.50 215.75,73.30 166.25,73.30" fill="#7a5230" stroke="#4d3218" stroke-width="0.8" fill-opacity="0.9"><title>wall_door_door0</title></polygon>
<polygon points="386.25,75.50 435.75,75.50 435.75,73.30 386.25,73.30" fill="#7a5230" stroke="#4d3218" stroke-width="0.8" fill-opacity="0.9"><title>wall_door_door1</title></polygon>
<polygon points="606.25,75.50 655.75,75.50 655.75,73.30 606.25,73.30" fill="#7a5230" stroke="#4d3218" stroke-width="0.8" fill-opacity="0.9"><title>wall_door_door2</title></polygon>
<polygon points="826.25,75.50 875.75,75.50 875.75,73.30 826.25,73.30" fill="#7a5230" stroke="#4d3218" stroke-width="0.8" fill-opacity="0.9"><title>wall_door_door3</title></polygon>
<polygon points="1046.25,75.50 1095.75,75.50 1095.75,73.30 1046.25,73.30" fill="#7a5230" stroke="#4d3218" stroke-width="0.8" fill-opacity="0.9"><title>wall_door_door4</title></polygon>
<polygon points="1131.50,93.65 1181.00,93.65 1181.00,89.25 1131.50,89.25" fill="#8b5fbf" stroke="#5d3b85" stroke-width="0.8" fill-opacity="0.9"><title>fire_door_far_leaf_open</title></polygon>
<polygon points="215.75,94.75 222.35,94.75 222.35,81.00 215.75,81.00" fill="#d8b34a" stroke="#9c7f22" stroke-width="0.8" fill-opacity="0.9"><title>milk_box0</title></polygon>
<polygon points="435.75,94.75 442.35,94.75 442.35,81.00 435.75,81.00" fill="#d8b34a" stroke="#9c7f22" stroke-width="0.8" fill-opacity="0.9"><title>milk_box1</title></polygon>
<polygon points="655.75,94.75 662.35,94.75 662.35,81.00 655.75,81.00" fill="#d8b34a" stroke="#9c7f22" stroke-width="0.8" fill-opacity="0.9"><title>milk_box2</title></polygon>
<polygon points="875.75,94.75 882.35,94.75 882.35,81.00 875.75,81.00" fill="#d8b34a" stroke="#9c7f22" stroke-width="0.8" fill-opacity="0.9"><title>milk_box3</title></polygon>
<polygon points="1095.75,94.75 1102.35,94.75 1102.35,81.00 1095.75,81.00" fill="#d8b34a" stroke="#9c7f22" stroke-width="0.8" fill-opacity="0.9"><title>milk_box4</title></polygon>
<polygon points="281.75,92.00 320.25,92.00 320.25,81.00 281.75,81.00" fill="#e08a1e" stroke="#a45f0d" stroke-width="0.8" fill-opacity="0.9"><title>hydrant_box</title></polygon>
<polygon points="856.09,113.32 889.09,113.81 889.45,89.06 856.45,88.58" fill="#c94f4f" stroke="#8c2f2f" stroke-width="0.8" fill-opacity="0.9"><title>clutter3_stroller</title></polygon>
<text x="70" y="28" font-size="17" font-weight="600" fill="#222">유형 A — 편복도(갓복도)형</text>
<line x1="159.8" y1="147.0" x2="159.8" y2="81.0" stroke="#c0392b" stroke-width="1.6"/>
<line x1="153.8" y1="147.0" x2="165.8" y2="147.0" stroke="#c0392b" stroke-width="1.6"/>
<line x1="153.8" y1="81.0" x2="165.8" y2="81.0" stroke="#c0392b" stroke-width="1.6"/>
<text x="168.8" y="114.0" font-size="13" fill="#c0392b">1.20 m</text>
<text x="70" y="48" font-size="13" fill="#555">복도 유효폭 1.20 m · 길이 20.0 m</text>
<text x="521.0" y="64.0" font-size="12" text-anchor="middle" fill="#5a6b3a">경사로 8% · 단차 150 mm</text>
<line x1="1137.0" y1="184.0" x2="1192.0" y2="184.0" stroke="#222" stroke-width="2"/>
<text x="1164.5" y="179.0" font-size="11" text-anchor="middle" fill="#222">1 m</text>
<rect x="70.0" y="258.0" width="13" height="13" fill="#5a5f66" stroke="#33373c" stroke-width="0.8"/>
<text x="88.0" y="269.0" font-size="12" fill="#333">벽</text>
<rect x="117.0" y="258.0" width="13" height="13" fill="#a9b0b8" stroke="#6f767e" stroke-width="0.8"/>
<text x="135.0" y="269.0" font-size="12" fill="#333">난간(개방측)</text>
<rect x="242.0" y="258.0" width="13" height="13" fill="#7a5230" stroke="#4d3218" stroke-width="0.8"/>
<text x="260.0" y="269.0" font-size="12" fill="#333">세대문</text>
<rect x="315.0" y="258.0" width="13" height="13" fill="#8b5fbf" stroke="#5d3b85" stroke-width="0.8"/>
<text x="333.0" y="269.0" font-size="12" fill="#333">방화문</text>
<rect x="388.0" y="258.0" width="13" height="13" fill="#8f8f96" stroke="#5c5c62" stroke-width="0.8"/>
<text x="406.0" y="269.0" font-size="12" fill="#333">문턱</text>
<rect x="448.0" y="258.0" width="13" height="13" fill="#cfd6c2" stroke="#9aa38a" stroke-width="0.8"/>
<text x="466.0" y="269.0" font-size="12" fill="#333">경사로</text>
<rect x="521.0" y="258.0" width="13" height="13" fill="#e08a1e" stroke="#a45f0d" stroke-width="0.8"/>
<text x="539.0" y="269.0" font-size="12" fill="#333">소화전함</text>
<rect x="607.0" y="258.0" width="13" height="13" fill="#d8b34a" stroke="#9c7f22" stroke-width="0.8"/>
<text x="625.0" y="269.0" font-size="12" fill="#333">우유함</text>
<rect x="680.0" y="258.0" width="13" height="13" fill="#c94f4f" stroke="#8c2f2f" stroke-width="0.8"/>
<text x="698.0" y="269.0" font-size="12" fill="#333">적치물</text>
</svg>
